<?xml version="1.0" encoding="UTF-8" standalone="no"?>
<svg
   xmlns:dc="http://purl.org/dc/elements/1.1/"
   xmlns:cc="http://creativecommons.org/ns#"
   xmlns:rdf="http://www.w3.org/1999/02/22-rdf-syntax-ns#"
   xmlns:svg="http://www.w3.org/2000/svg"
   xmlns="http://www.w3.org/2000/svg"
   version="1.1"
   id="svg4967"
   viewBox="0 0 270.72713 111.77003"
   height="31.543985mm"
   width="76.405212mm">
  <defs
     id="defs4969" />
  <metadata
     id="metadata4972">
    <rdf:RDF>
      <cc:Work
         rdf:about="">
        <dc:format>image/svg+xml</dc:format>
        <dc:type
           rdf:resource="http://purl.org/dc/dcmitype/StillImage" />
        <dc:title></dc:title>
      </cc:Work>
    </rdf:RDF>
  </metadata>
  <g
     transform="translate(-167.49358,-162.19147)"
     id="layer1">
    <path
       id="path4901"
       style="fill:none;stroke:#000000;stroke-width:0.072;stroke-linecap:round;stroke-miterlimit:4;stroke-dasharray:none"
       d="m 437.97068,166.1964 a 3.754892,3.754892 0 0 0 -3.75489,-3.7549" />
    <path
       id="path4903"
       style="fill:none;stroke:#000000;stroke-width:0.072;stroke-linecap:round;stroke-miterlimit:4;stroke-dasharray:none"
       d="m 434.21579,273.71148 a 3.754892,3.754892 0 0 0 3.75489,-3.75489" />
    <path
       id="path4905"
       style="fill:none;stroke:#000000;stroke-width:0.072;stroke-linecap:round;stroke-miterlimit:4;stroke-dasharray:none"
       d="m 167.74361,269.95659 a 3.754892,3.754892 0 0 0 3.75489,3.75489" />
    <path
       id="path4907"
       style="fill:none;stroke:#000000;stroke-width:0.072;stroke-linecap:round;stroke-miterlimit:4;stroke-dasharray:none"
       d="m 171.4985,162.4415 a 3.754892,3.754892 0 0 0 -3.75489,3.7549" />
    <path
       id="path4909"
       style="fill:none;stroke:#000000;stroke-width:0.072;stroke-linecap:round;stroke-miterlimit:4;stroke-dasharray:none"
       d="m 202.23855,202.18078 a 2.7035225,2.7035225 0 1 0 -5.40704,0 2.7035225,2.7035225 0 0 0 5.40704,0 z" />
    <path
       id="path4911"
       style="fill:none;stroke:#000000;stroke-width:0.072;stroke-linecap:round;stroke-miterlimit:4;stroke-dasharray:none"
       d="m 202.23855,230.79306 a 2.7035225,2.7035225 0 1 0 -5.40704,0 2.7035225,2.7035225 0 0 0 5.40704,0 z" />
    <path
       id="path4913"
       style="fill:none;stroke:#000000;stroke-width:0.072;stroke-linecap:round;stroke-miterlimit:4;stroke-dasharray:none"
       d="m 281.71585,210.12864 a 2.702275,2.702275 0 1 0 -5.40455,0 2.702275,2.702275 0 0 0 5.40455,0 z" />
    <path
       id="path4915"
       style="fill:none;stroke:#000000;stroke-width:0.072;stroke-linecap:round;stroke-miterlimit:4;stroke-dasharray:none"
       d="m 281.71585,226.02435 a 2.702275,2.702275 0 1 0 -5.40455,0 2.702275,2.702275 0 0 0 5.40455,0 z" />
    <path
       id="path4917"
       style="fill:none;stroke:#000000;stroke-width:0.072;stroke-linecap:round;stroke-miterlimit:4;stroke-dasharray:none"
       d="m 343.90926,196.90902 a 2.702271,2.702271 0 1 0 -5.40454,0 2.702271,2.702271 0 1 0 5.40454,0 z" />
    <path
       id="path4919"
       style="fill:none;stroke:#000000;stroke-width:0.072;stroke-linecap:round;stroke-miterlimit:4;stroke-dasharray:none"
       d="m 343.90926,212.80473 a 2.702271,2.702271 0 1 0 -5.40454,0 2.702271,2.702271 0 1 0 5.40454,0 z" />
    <path
       id="path4921"
       style="fill:none;stroke:#000000;stroke-width:0.072;stroke-linecap:round;stroke-miterlimit:4;stroke-dasharray:none"
       d="m 406.10267,183.6894 a 2.702275,2.702275 0 1 0 -5.40455,0 2.702275,2.702275 0 0 0 5.40455,0 z" />
    <path
       id="path4923"
       style="fill:none;stroke:#000000;stroke-width:0.072;stroke-linecap:round;stroke-miterlimit:4;stroke-dasharray:none"
       d="m 406.10267,199.58511 a 2.702275,2.702275 0 1 0 -5.40455,0 2.702275,2.702275 0 0 0 5.40455,0 z" />
    <path
       id="path4925"
       style="fill:none;stroke:#000000;stroke-width:0.072;stroke-linecap:round;stroke-miterlimit:4;stroke-dasharray:none"
       d="m 427.95638,260.99491 a 2.702271,2.702271 0 1 0 -5.40453,0 2.702271,2.702271 0 1 0 5.40453,0 z" />
    <path
       id="path4927"
       style="fill:none;stroke:#000000;stroke-width:0.072;stroke-linecap:round;stroke-miterlimit:4;stroke-dasharray:none"
       d="m 183.16245,260.99491 a 2.702271,2.702271 0 1 0 -5.40454,0 2.702271,2.702271 0 1 0 5.40454,0 z" />
    <path
       id="path4929"
       style="fill:none;stroke:#000000;stroke-width:0.072;stroke-linecap:round;stroke-miterlimit:4;stroke-dasharray:none"
       d="m 183.16245,175.15807 a 2.702271,2.702271 0 1 0 -5.40454,0 2.702271,2.702271 0 1 0 5.40454,0 z" />
    <path
       id="path4931"
       style="fill:none;stroke:#000000;stroke-width:0.072;stroke-linecap:round;stroke-miterlimit:4;stroke-dasharray:none"
       d="m 427.95638,175.15807 a 2.702271,2.702271 0 1 0 -5.40453,0 2.702271,2.702271 0 1 0 5.40453,0 z" />
    <path
       id="path4933"
       style="fill:none;stroke:#000000;stroke-width:0.072;stroke-linecap:round;stroke-miterlimit:4;stroke-dasharray:none"
       d="m 171.4985,273.71148 262.71729,0" />
    <path
       id="path4935"
       style="fill:none;stroke:#000000;stroke-width:0.072;stroke-linecap:round;stroke-miterlimit:4;stroke-dasharray:none"
       d="m 167.74361,166.1964 0,103.76019" />
    <path
       id="path4937"
       style="fill:none;stroke:#000000;stroke-width:0.072;stroke-linecap:round;stroke-miterlimit:4;stroke-dasharray:none"
       d="m 434.21579,162.4415 -262.71729,0" />
    <path
       id="path4939"
       style="fill:none;stroke:#000000;stroke-width:0.072;stroke-linecap:round;stroke-miterlimit:4;stroke-dasharray:none"
       d="m 437.97068,269.95659 0,-103.76019" />
  </g>
</svg>
