<?xml version="1.0" encoding="UTF-8" standalone="no"?>
<svg
   xmlns:dc="http://purl.org/dc/elements/1.1/"
   xmlns:cc="http://creativecommons.org/ns#"
   xmlns:rdf="http://www.w3.org/1999/02/22-rdf-syntax-ns#"
   xmlns:svg="http://www.w3.org/2000/svg"
   xmlns="http://www.w3.org/2000/svg"
   version="1.1"
   id="svg10971"
   viewBox="0 0 38.056023 112.68101"
   height="31.801085mm"
   width="10.740255mm">
  <defs
     id="defs10973" />
  <metadata
     id="metadata10976">
    <rdf:RDF>
      <cc:Work
         rdf:about="">
        <dc:format>image/svg+xml</dc:format>
        <dc:type
           rdf:resource="http://purl.org/dc/dcmitype/StillImage" />
        <dc:title></dc:title>
      </cc:Work>
    </rdf:RDF>
  </metadata>
  <g
     transform="translate(1487.1935,-224.59313)"
     id="layer1">
    <path
       id="path10255"
       style="fill:none;stroke:#000000;stroke-width:0.072;stroke-linecap:round;stroke-miterlimit:4;stroke-dasharray:none"
       d="m -1457.8395,308.07858 a 4.537162,4.537162 0 0 0 -9.0743,0" />
    <path
       id="path10257"
       style="fill:none;stroke:#000000;stroke-width:0.072;stroke-linecap:round;stroke-miterlimit:4;stroke-dasharray:none"
       d="m -1466.9138,308.07858 0,0.003" />
    <path
       id="path10259"
       style="fill:none;stroke:#000000;stroke-width:0.072;stroke-linecap:round;stroke-miterlimit:4;stroke-dasharray:none"
       d="m -1466.9138,308.08171 a 4.537162,4.537162 0 0 0 9.0743,0" />
    <path
       id="path10261"
       style="fill:none;stroke:#000000;stroke-width:0.072;stroke-linecap:round;stroke-miterlimit:4;stroke-dasharray:none"
       d="m -1457.8395,308.08171 0,-0.003" />
    <path
       id="path10263"
       style="fill:none;stroke:#000000;stroke-width:0.072;stroke-linecap:round;stroke-miterlimit:4;stroke-dasharray:none"
       d="m -1457.8395,276.78781 a 4.537162,4.537162 0 0 0 -9.0743,0" />
    <path
       id="path10265"
       style="fill:none;stroke:#000000;stroke-width:0.072;stroke-linecap:round;stroke-miterlimit:4;stroke-dasharray:none"
       d="m -1466.9138,276.78781 0,0.003" />
    <path
       id="path10267"
       style="fill:none;stroke:#000000;stroke-width:0.072;stroke-linecap:round;stroke-miterlimit:4;stroke-dasharray:none"
       d="m -1466.9138,276.79094 a 4.537162,4.537162 0 0 0 9.0743,0" />
    <path
       id="path10269"
       style="fill:none;stroke:#000000;stroke-width:0.072;stroke-linecap:round;stroke-miterlimit:4;stroke-dasharray:none"
       d="m -1457.8395,276.79094 0,-0.003" />
    <path
       id="path10271"
       style="fill:none;stroke:#000000;stroke-width:0.072;stroke-linecap:round;stroke-miterlimit:4;stroke-dasharray:none"
       d="m -1457.8395,320.59488 a 4.537162,4.537162 0 0 0 -9.0743,0" />
    <path
       id="path10273"
       style="fill:none;stroke:#000000;stroke-width:0.072;stroke-linecap:round;stroke-miterlimit:4;stroke-dasharray:none"
       d="m -1466.9138,320.59488 0,0.003" />
    <path
       id="path10275"
       style="fill:none;stroke:#000000;stroke-width:0.072;stroke-linecap:round;stroke-miterlimit:4;stroke-dasharray:none"
       d="m -1466.9138,320.59801 a 4.537162,4.537162 0 0 0 9.0743,0" />
    <path
       id="path10277"
       style="fill:none;stroke:#000000;stroke-width:0.072;stroke-linecap:round;stroke-miterlimit:4;stroke-dasharray:none"
       d="m -1457.8395,320.59801 0,-0.003" />
    <path
       id="path10279"
       style="fill:none;stroke:#000000;stroke-width:0.072;stroke-linecap:round;stroke-miterlimit:4;stroke-dasharray:none"
       d="m -1457.8395,289.30411 a 4.537162,4.537162 0 0 0 -9.0743,0" />
    <path
       id="path10281"
       style="fill:none;stroke:#000000;stroke-width:0.072;stroke-linecap:round;stroke-miterlimit:4;stroke-dasharray:none"
       d="m -1466.9138,289.30411 0,0.003" />
    <path
       id="path10283"
       style="fill:none;stroke:#000000;stroke-width:0.072;stroke-linecap:round;stroke-miterlimit:4;stroke-dasharray:none"
       d="m -1466.9138,289.30724 a 4.537162,4.537162 0 0 0 9.0743,0" />
    <path
       id="path10285"
       style="fill:none;stroke:#000000;stroke-width:0.072;stroke-linecap:round;stroke-miterlimit:4;stroke-dasharray:none"
       d="m -1457.8395,289.30724 0,-0.003" />
    <path
       id="path10287"
       style="fill:none;stroke:#000000;stroke-width:0.072;stroke-linecap:round;stroke-miterlimit:4;stroke-dasharray:none"
       d="m -1486.9399,327.63688 a 9.387231,9.387231 0 0 0 9.3872,9.38723" />
    <path
       id="path10289"
       style="fill:none;stroke:#000000;stroke-width:0.072;stroke-linecap:round;stroke-miterlimit:4;stroke-dasharray:none"
       d="m -1486.9399,244.71633 0,82.92055" />
    <path
       id="path10291"
       style="fill:none;stroke:#000000;stroke-width:0.072;stroke-linecap:round;stroke-miterlimit:4;stroke-dasharray:none"
       d="m -1482.2463,244.71633 -4.6936,0" />
    <path
       id="path10293"
       style="fill:none;stroke:#000000;stroke-width:0.072;stroke-linecap:round;stroke-miterlimit:4;stroke-dasharray:none"
       d="m -1482.2463,224.84669 0,19.86964" />
    <path
       id="path10295"
       style="fill:none;stroke:#000000;stroke-width:0.072;stroke-linecap:round;stroke-miterlimit:4;stroke-dasharray:none"
       d="m -1454.0846,224.84669 -28.1617,0" />
    <path
       id="path10297"
       style="fill:none;stroke:#000000;stroke-width:0.072;stroke-linecap:round;stroke-miterlimit:4;stroke-dasharray:none"
       d="m -1454.0846,244.71633 0,-19.86964" />
    <path
       id="path10299"
       style="fill:none;stroke:#000000;stroke-width:0.072;stroke-linecap:round;stroke-miterlimit:4;stroke-dasharray:none"
       d="m -1449.391,244.71633 -4.6936,0" />
    <path
       id="path10301"
       style="fill:none;stroke:#000000;stroke-width:0.072;stroke-linecap:round;stroke-miterlimit:4;stroke-dasharray:none"
       d="m -1449.391,327.63688 0,-82.92055" />
    <path
       id="path10303"
       style="fill:none;stroke:#000000;stroke-width:0.072;stroke-linecap:round;stroke-miterlimit:4;stroke-dasharray:none"
       d="m -1458.7782,337.02411 a 9.387231,9.387231 0 0 0 9.3872,-9.38723" />
    <path
       id="path10305"
       style="fill:none;stroke:#000000;stroke-width:0.072;stroke-linecap:round;stroke-miterlimit:4;stroke-dasharray:none"
       d="m -1477.5527,337.02411 18.7745,0" />
  </g>
</svg>
